<mxfile host="app.diagrams.net" agent="Mozilla/5.0 (Macintosh; Intel Mac OS X 10_15_7) AppleWebKit/605.1.15 (KHTML, like Gecko) Version/18.2 Safari/605.1.15" version="26.0.4">
  <diagram name="Pagina-1" id="CEtmXKXBpQeazpoTnXLW">
    <mxGraphModel grid="1" page="1" gridSize="10" guides="1" tooltips="1" connect="1" arrows="1" fold="1" pageScale="1" pageWidth="827" pageHeight="1169" math="0" shadow="0">
      <root>
        <mxCell id="0" />
        <mxCell id="1" parent="0" />
        <mxCell id="4BkYFdHEoDKxAdIRVf8H-1" value="&lt;div&gt;&lt;b&gt;Esercizio1&lt;/b&gt;: Creare un diagramma di flusso che prenda in input un numero n ed un numero m.&lt;/div&gt;&lt;div&gt;Il diagramma deve verificare se n&amp;gt;m ed andare a sottrarre m al valore di n finché è possibile ed alla fine&lt;/div&gt;&lt;div&gt;stampare il valore rimanente di n. Altrimenti il diagramma deve eseguire la sottrazione di n al valore di m e&lt;/div&gt;&lt;div&gt;stampare il valore di m rimanente.&lt;/div&gt;&lt;div&gt;&lt;br&gt;&lt;/div&gt;&lt;div&gt;Esempio: se n = 10 e m = 3, si arriverà alla fine ad avere n = 1 che dovrà essere stampato.&lt;/div&gt;" style="text;html=1;align=center;verticalAlign=middle;resizable=0;points=[];autosize=1;strokeColor=none;fillColor=none;fontSize=16;" vertex="1" parent="1">
          <mxGeometry x="29" y="40" width="770" height="130" as="geometry" />
        </mxCell>
        <mxCell id="-LIeAN5SZOG1Tovzyzz--3" value="" style="edgeStyle=orthogonalEdgeStyle;rounded=0;orthogonalLoop=1;jettySize=auto;html=1;fontSize=16;" edge="1" parent="1" source="-LIeAN5SZOG1Tovzyzz--1" target="-LIeAN5SZOG1Tovzyzz--2">
          <mxGeometry relative="1" as="geometry" />
        </mxCell>
        <mxCell id="-LIeAN5SZOG1Tovzyzz--1" value="" style="ellipse;whiteSpace=wrap;html=1;aspect=fixed;fontSize=16;" vertex="1" parent="1">
          <mxGeometry x="389" y="170" width="50" height="50" as="geometry" />
        </mxCell>
        <mxCell id="-LIeAN5SZOG1Tovzyzz--5" value="" style="edgeStyle=orthogonalEdgeStyle;rounded=0;orthogonalLoop=1;jettySize=auto;html=1;fontSize=16;" edge="1" parent="1" source="-LIeAN5SZOG1Tovzyzz--2" target="-LIeAN5SZOG1Tovzyzz--4">
          <mxGeometry relative="1" as="geometry" />
        </mxCell>
        <mxCell id="-LIeAN5SZOG1Tovzyzz--2" value="n, m" style="shape=hexagon;perimeter=hexagonPerimeter2;whiteSpace=wrap;html=1;fixedSize=1;fontSize=16;" vertex="1" parent="1">
          <mxGeometry x="354" y="240" width="120" height="80" as="geometry" />
        </mxCell>
        <mxCell id="-LIeAN5SZOG1Tovzyzz--8" value="" style="edgeStyle=orthogonalEdgeStyle;rounded=0;orthogonalLoop=1;jettySize=auto;html=1;fontSize=16;" edge="1" parent="1" source="-LIeAN5SZOG1Tovzyzz--4" target="-LIeAN5SZOG1Tovzyzz--7">
          <mxGeometry relative="1" as="geometry" />
        </mxCell>
        <mxCell id="-LIeAN5SZOG1Tovzyzz--4" value="n, m" style="shape=parallelogram;perimeter=parallelogramPerimeter;whiteSpace=wrap;html=1;fixedSize=1;fillColor=#d5e8d4;strokeColor=#82b366;fontSize=16;" vertex="1" parent="1">
          <mxGeometry x="354" y="350" width="120" height="60" as="geometry" />
        </mxCell>
        <mxCell id="-LIeAN5SZOG1Tovzyzz--6" value="i" style="text;html=1;align=center;verticalAlign=middle;resizable=0;points=[];autosize=1;strokeColor=none;fillColor=none;fontSize=16;" vertex="1" parent="1">
          <mxGeometry x="445" y="318" width="30" height="30" as="geometry" />
        </mxCell>
        <mxCell id="-LIeAN5SZOG1Tovzyzz--12" value="" style="edgeStyle=orthogonalEdgeStyle;rounded=0;orthogonalLoop=1;jettySize=auto;html=1;fontSize=16;" edge="1" parent="1" source="-LIeAN5SZOG1Tovzyzz--7" target="-LIeAN5SZOG1Tovzyzz--11">
          <mxGeometry relative="1" as="geometry">
            <Array as="points">
              <mxPoint x="620" y="470" />
            </Array>
          </mxGeometry>
        </mxCell>
        <mxCell id="-LIeAN5SZOG1Tovzyzz--25" style="edgeStyle=orthogonalEdgeStyle;rounded=0;orthogonalLoop=1;jettySize=auto;html=1;entryX=0.5;entryY=0;entryDx=0;entryDy=0;fontSize=16;" edge="1" parent="1" source="-LIeAN5SZOG1Tovzyzz--7" target="-LIeAN5SZOG1Tovzyzz--24">
          <mxGeometry relative="1" as="geometry" />
        </mxCell>
        <mxCell id="-LIeAN5SZOG1Tovzyzz--7" value="n &amp;gt; m" style="rhombus;whiteSpace=wrap;html=1;fontSize=16;" vertex="1" parent="1">
          <mxGeometry x="374" y="430" width="80" height="80" as="geometry" />
        </mxCell>
        <mxCell id="-LIeAN5SZOG1Tovzyzz--14" value="" style="edgeStyle=orthogonalEdgeStyle;rounded=0;orthogonalLoop=1;jettySize=auto;html=1;fontSize=16;" edge="1" parent="1" source="-LIeAN5SZOG1Tovzyzz--11" target="-LIeAN5SZOG1Tovzyzz--13">
          <mxGeometry relative="1" as="geometry" />
        </mxCell>
        <mxCell id="-LIeAN5SZOG1Tovzyzz--11" value="" style="ellipse;whiteSpace=wrap;html=1;fontSize=16;" vertex="1" parent="1">
          <mxGeometry x="600" y="510" width="40" height="40" as="geometry" />
        </mxCell>
        <mxCell id="-LIeAN5SZOG1Tovzyzz--16" value="" style="edgeStyle=orthogonalEdgeStyle;rounded=0;orthogonalLoop=1;jettySize=auto;html=1;fontSize=16;" edge="1" parent="1" source="-LIeAN5SZOG1Tovzyzz--13" target="-LIeAN5SZOG1Tovzyzz--15">
          <mxGeometry relative="1" as="geometry" />
        </mxCell>
        <mxCell id="-LIeAN5SZOG1Tovzyzz--21" value="" style="edgeStyle=orthogonalEdgeStyle;rounded=0;orthogonalLoop=1;jettySize=auto;html=1;fontSize=16;" edge="1" parent="1" source="-LIeAN5SZOG1Tovzyzz--13" target="-LIeAN5SZOG1Tovzyzz--20">
          <mxGeometry relative="1" as="geometry" />
        </mxCell>
        <mxCell id="-LIeAN5SZOG1Tovzyzz--13" value="n &amp;gt;= m" style="rhombus;whiteSpace=wrap;html=1;fontSize=16;" vertex="1" parent="1">
          <mxGeometry x="580" y="580" width="80" height="80" as="geometry" />
        </mxCell>
        <mxCell id="-LIeAN5SZOG1Tovzyzz--17" style="edgeStyle=orthogonalEdgeStyle;rounded=0;orthogonalLoop=1;jettySize=auto;html=1;entryX=1;entryY=0.5;entryDx=0;entryDy=0;fontSize=16;" edge="1" parent="1" source="-LIeAN5SZOG1Tovzyzz--15" target="-LIeAN5SZOG1Tovzyzz--11">
          <mxGeometry relative="1" as="geometry">
            <Array as="points">
              <mxPoint x="730" y="750" />
              <mxPoint x="810" y="750" />
              <mxPoint x="810" y="530" />
            </Array>
          </mxGeometry>
        </mxCell>
        <mxCell id="-LIeAN5SZOG1Tovzyzz--15" value="n = n - m" style="whiteSpace=wrap;html=1;fontSize=16;" vertex="1" parent="1">
          <mxGeometry x="670" y="670" width="120" height="60" as="geometry" />
        </mxCell>
        <mxCell id="-LIeAN5SZOG1Tovzyzz--18" value="V" style="text;html=1;align=center;verticalAlign=middle;resizable=0;points=[];autosize=1;strokeColor=none;fillColor=none;fontSize=16;" vertex="1" parent="1">
          <mxGeometry x="590" y="440" width="30" height="30" as="geometry" />
        </mxCell>
        <mxCell id="-LIeAN5SZOG1Tovzyzz--19" value="V" style="text;html=1;align=center;verticalAlign=middle;resizable=0;points=[];autosize=1;strokeColor=none;fillColor=none;fontSize=16;" vertex="1" parent="1">
          <mxGeometry x="705" y="588" width="30" height="30" as="geometry" />
        </mxCell>
        <mxCell id="-LIeAN5SZOG1Tovzyzz--38" style="edgeStyle=orthogonalEdgeStyle;rounded=0;orthogonalLoop=1;jettySize=auto;html=1;entryX=1;entryY=0.5;entryDx=0;entryDy=0;fontSize=16;" edge="1" parent="1" source="-LIeAN5SZOG1Tovzyzz--20" target="-LIeAN5SZOG1Tovzyzz--37">
          <mxGeometry relative="1" as="geometry">
            <Array as="points">
              <mxPoint x="520" y="800" />
            </Array>
          </mxGeometry>
        </mxCell>
        <mxCell id="-LIeAN5SZOG1Tovzyzz--20" value="n" style="shape=parallelogram;perimeter=parallelogramPerimeter;whiteSpace=wrap;html=1;fixedSize=1;fillColor=#f8cecc;strokeColor=#b85450;fontSize=16;" vertex="1" parent="1">
          <mxGeometry x="454" y="670" width="120" height="60" as="geometry" />
        </mxCell>
        <mxCell id="-LIeAN5SZOG1Tovzyzz--22" value="o" style="text;html=1;align=center;verticalAlign=middle;resizable=0;points=[];autosize=1;strokeColor=none;fillColor=none;fontSize=16;" vertex="1" parent="1">
          <mxGeometry x="535" y="638" width="30" height="30" as="geometry" />
        </mxCell>
        <mxCell id="-LIeAN5SZOG1Tovzyzz--23" value="F" style="text;html=1;align=center;verticalAlign=middle;resizable=0;points=[];autosize=1;strokeColor=none;fillColor=none;fontSize=16;" vertex="1" parent="1">
          <mxGeometry x="520" y="588" width="30" height="30" as="geometry" />
        </mxCell>
        <mxCell id="-LIeAN5SZOG1Tovzyzz--27" value="" style="edgeStyle=orthogonalEdgeStyle;rounded=0;orthogonalLoop=1;jettySize=auto;html=1;fontSize=16;" edge="1" parent="1" source="-LIeAN5SZOG1Tovzyzz--24" target="-LIeAN5SZOG1Tovzyzz--26">
          <mxGeometry relative="1" as="geometry" />
        </mxCell>
        <mxCell id="-LIeAN5SZOG1Tovzyzz--24" value="" style="ellipse;whiteSpace=wrap;html=1;fontSize=16;" vertex="1" parent="1">
          <mxGeometry x="190" y="500" width="40" height="40" as="geometry" />
        </mxCell>
        <mxCell id="-LIeAN5SZOG1Tovzyzz--29" value="" style="edgeStyle=orthogonalEdgeStyle;rounded=0;orthogonalLoop=1;jettySize=auto;html=1;fontSize=16;" edge="1" parent="1" source="-LIeAN5SZOG1Tovzyzz--26" target="-LIeAN5SZOG1Tovzyzz--28">
          <mxGeometry relative="1" as="geometry" />
        </mxCell>
        <mxCell id="-LIeAN5SZOG1Tovzyzz--34" value="" style="edgeStyle=orthogonalEdgeStyle;rounded=0;orthogonalLoop=1;jettySize=auto;html=1;fontSize=16;" edge="1" parent="1" source="-LIeAN5SZOG1Tovzyzz--26" target="-LIeAN5SZOG1Tovzyzz--33">
          <mxGeometry relative="1" as="geometry" />
        </mxCell>
        <mxCell id="-LIeAN5SZOG1Tovzyzz--26" value="m &amp;gt;= n" style="rhombus;whiteSpace=wrap;html=1;fontSize=16;" vertex="1" parent="1">
          <mxGeometry x="170" y="563" width="80" height="80" as="geometry" />
        </mxCell>
        <mxCell id="-LIeAN5SZOG1Tovzyzz--30" style="edgeStyle=orthogonalEdgeStyle;rounded=0;orthogonalLoop=1;jettySize=auto;html=1;entryX=1;entryY=0.5;entryDx=0;entryDy=0;fontSize=16;" edge="1" parent="1" source="-LIeAN5SZOG1Tovzyzz--28" target="-LIeAN5SZOG1Tovzyzz--24">
          <mxGeometry relative="1" as="geometry">
            <Array as="points">
              <mxPoint x="314" y="740" />
              <mxPoint x="400" y="740" />
              <mxPoint x="400" y="520" />
            </Array>
          </mxGeometry>
        </mxCell>
        <mxCell id="-LIeAN5SZOG1Tovzyzz--28" value="m = m - n" style="whiteSpace=wrap;html=1;fontSize=16;" vertex="1" parent="1">
          <mxGeometry x="254" y="668" width="120" height="60" as="geometry" />
        </mxCell>
        <mxCell id="-LIeAN5SZOG1Tovzyzz--31" value="V" style="text;html=1;align=center;verticalAlign=middle;resizable=0;points=[];autosize=1;strokeColor=none;fillColor=none;fontSize=16;" vertex="1" parent="1">
          <mxGeometry x="280" y="570" width="30" height="30" as="geometry" />
        </mxCell>
        <mxCell id="-LIeAN5SZOG1Tovzyzz--32" value="F" style="text;html=1;align=center;verticalAlign=middle;resizable=0;points=[];autosize=1;strokeColor=none;fillColor=none;fontSize=16;" vertex="1" parent="1">
          <mxGeometry x="195" y="438" width="30" height="30" as="geometry" />
        </mxCell>
        <mxCell id="-LIeAN5SZOG1Tovzyzz--39" style="edgeStyle=orthogonalEdgeStyle;rounded=0;orthogonalLoop=1;jettySize=auto;html=1;entryX=0;entryY=0.5;entryDx=0;entryDy=0;fontSize=16;" edge="1" parent="1" source="-LIeAN5SZOG1Tovzyzz--33" target="-LIeAN5SZOG1Tovzyzz--37">
          <mxGeometry relative="1" as="geometry">
            <Array as="points">
              <mxPoint x="100" y="800" />
            </Array>
          </mxGeometry>
        </mxCell>
        <mxCell id="-LIeAN5SZOG1Tovzyzz--33" value="m" style="shape=parallelogram;perimeter=parallelogramPerimeter;whiteSpace=wrap;html=1;fixedSize=1;fillColor=#f8cecc;strokeColor=#b85450;fontSize=16;" vertex="1" parent="1">
          <mxGeometry x="40" y="668" width="120" height="60" as="geometry" />
        </mxCell>
        <mxCell id="-LIeAN5SZOG1Tovzyzz--35" value="F" style="text;html=1;align=center;verticalAlign=middle;resizable=0;points=[];autosize=1;strokeColor=none;fillColor=none;fontSize=16;" vertex="1" parent="1">
          <mxGeometry x="95" y="578" width="30" height="30" as="geometry" />
        </mxCell>
        <mxCell id="-LIeAN5SZOG1Tovzyzz--36" value="o" style="text;html=1;align=center;verticalAlign=middle;resizable=0;points=[];autosize=1;strokeColor=none;fillColor=none;fontSize=16;" vertex="1" parent="1">
          <mxGeometry x="135" y="638" width="30" height="30" as="geometry" />
        </mxCell>
        <mxCell id="-LIeAN5SZOG1Tovzyzz--41" value="" style="edgeStyle=orthogonalEdgeStyle;rounded=0;orthogonalLoop=1;jettySize=auto;html=1;fontSize=16;" edge="1" parent="1" source="-LIeAN5SZOG1Tovzyzz--37" target="-LIeAN5SZOG1Tovzyzz--40">
          <mxGeometry relative="1" as="geometry" />
        </mxCell>
        <mxCell id="-LIeAN5SZOG1Tovzyzz--37" value="" style="ellipse;whiteSpace=wrap;html=1;fontSize=16;" vertex="1" parent="1">
          <mxGeometry x="394" y="780" width="40" height="40" as="geometry" />
        </mxCell>
        <mxCell id="-LIeAN5SZOG1Tovzyzz--40" value="" style="ellipse;whiteSpace=wrap;html=1;aspect=fixed;fillColor=#000000;fontSize=16;" vertex="1" parent="1">
          <mxGeometry x="389" y="870" width="50" height="50" as="geometry" />
        </mxCell>
      </root>
    </mxGraphModel>
  </diagram>
</mxfile>
